# xmcd
#
# Track frame offsets: 
#        150
#        17765
#        36510
#        55675
#        86263
#        104288
#        126363
#        156293
#        178810
#        210763
#        233110
#        251575
#        271138
#        305685
#
# Disc length: 4268 seconds
#
# Revision: 45
# Processed by: cddbd v1.5.2PL0 Copyright (c) Steve Scherf et al.
# Submitted via: ExactAudioCopy v0.99pb5
#
DISCID=b610aa0e
DTITLE=Gary Moore - Ballads and Blues 1982-1994
DYEAR=1994
DGENRE=Blues
TTITLE0=Always Gonna Love You
TTITLE1=Still Got The Blues
TTITLE2=Empty Rooms
TTITLE3=Parisienne Walkways Live
TTITLE4=One Day
TTITLE5=Separate Ways
TTITLE6=Story Of The Blues
TTITLE7=Crying In The Shadows
TTITLE8=With Love (Remember)
TTITLE9=Midnight Blues
TTITLE10=Falling In Love With You
TTITLE11=Jumpin' At Shadows
TTITLE12=Blues For Narada
TTITLE13=Johnny Boy
EXTD=YEAR: 1994
EXTT0=
EXTT1=
EXTT2=
EXTT3=
EXTT4=
EXTT5=
EXTT6=
EXTT7=
EXTT8=
EXTT9=
EXTT10=
EXTT11=
EXTT12=
EXTT13=
PLAYORDER=
